%TF.GenerationSoftware,KiCad,Pcbnew,(5.1.10-1-10_14)*%
%TF.CreationDate,2021-07-24T22:10:12-05:00*%
%TF.ProjectId,Untitled,556e7469-746c-4656-942e-6b696361645f,rev?*%
%TF.SameCoordinates,Original*%
%TF.FileFunction,Legend,Top*%
%TF.FilePolarity,Positive*%
%FSLAX46Y46*%
G04 Gerber Fmt 4.6, Leading zero omitted, Abs format (unit mm)*
G04 Created by KiCad (PCBNEW (5.1.10-1-10_14)) date 2021-07-24 22:10:12*
%MOMM*%
%LPD*%
G01*
G04 APERTURE LIST*
%ADD10C,0.150000*%
%ADD11C,0.120000*%
%ADD12O,1.700000X1.700000*%
%ADD13R,1.700000X1.700000*%
%ADD14O,1.700000X2.700000*%
%ADD15C,1.750000*%
%ADD16C,3.987800*%
G04 APERTURE END LIST*
D10*
X144154000Y-119721142D02*
X142725428Y-119721142D01*
X142725428Y-116721142D01*
X145154000Y-119721142D02*
X145154000Y-117721142D01*
X145154000Y-116721142D02*
X145011142Y-116864000D01*
X145154000Y-117006857D01*
X145296857Y-116864000D01*
X145154000Y-116721142D01*
X145154000Y-117006857D01*
X146154000Y-117721142D02*
X147296857Y-117721142D01*
X146582571Y-116721142D02*
X146582571Y-119292571D01*
X146725428Y-119578285D01*
X147011142Y-119721142D01*
X147296857Y-119721142D01*
X147868285Y-117721142D02*
X149011142Y-117721142D01*
X148296857Y-116721142D02*
X148296857Y-119292571D01*
X148439714Y-119578285D01*
X148725428Y-119721142D01*
X149011142Y-119721142D01*
X150439714Y-119721142D02*
X150154000Y-119578285D01*
X150011142Y-119292571D01*
X150011142Y-116721142D01*
X152725428Y-119578285D02*
X152439714Y-119721142D01*
X151868285Y-119721142D01*
X151582571Y-119578285D01*
X151439714Y-119292571D01*
X151439714Y-118149714D01*
X151582571Y-117864000D01*
X151868285Y-117721142D01*
X152439714Y-117721142D01*
X152725428Y-117864000D01*
X152868285Y-118149714D01*
X152868285Y-118435428D01*
X151439714Y-118721142D01*
X154154000Y-117721142D02*
X154154000Y-120292571D01*
X154011142Y-120578285D01*
X153725428Y-120721142D01*
X153582571Y-120721142D01*
X154154000Y-116721142D02*
X154011142Y-116864000D01*
X154154000Y-117006857D01*
X154296857Y-116864000D01*
X154154000Y-116721142D01*
X154154000Y-117006857D01*
X156868285Y-119721142D02*
X156868285Y-116721142D01*
X156868285Y-119578285D02*
X156582571Y-119721142D01*
X156011142Y-119721142D01*
X155725428Y-119578285D01*
X155582571Y-119435428D01*
X155439714Y-119149714D01*
X155439714Y-118292571D01*
X155582571Y-118006857D01*
X155725428Y-117864000D01*
X156011142Y-117721142D01*
X156582571Y-117721142D01*
X156868285Y-117864000D01*
X158439714Y-119721142D02*
X159011142Y-119721142D01*
X159296857Y-119578285D01*
X159439714Y-119435428D01*
X159725428Y-119006857D01*
X159868285Y-118435428D01*
X159868285Y-117292571D01*
X159725428Y-117006857D01*
X159582571Y-116864000D01*
X159296857Y-116721142D01*
X158725428Y-116721142D01*
X158439714Y-116864000D01*
X158296857Y-117006857D01*
X158154000Y-117292571D01*
X158154000Y-118006857D01*
X158296857Y-118292571D01*
X158439714Y-118435428D01*
X158725428Y-118578285D01*
X159296857Y-118578285D01*
X159582571Y-118435428D01*
X159725428Y-118292571D01*
X159868285Y-118006857D01*
X160868285Y-116721142D02*
X162868285Y-116721142D01*
X161582571Y-119721142D01*
D11*
%TO.C,J1*%
X43120000Y-102930000D02*
X48320000Y-102930000D01*
X43120000Y-97790000D02*
X43120000Y-102930000D01*
X48320000Y-95190000D02*
X48320000Y-102930000D01*
X43120000Y-97790000D02*
X45720000Y-97790000D01*
X45720000Y-97790000D02*
X45720000Y-95190000D01*
X45720000Y-95190000D02*
X48320000Y-95190000D01*
X43120000Y-96520000D02*
X43120000Y-95190000D01*
X43120000Y-95190000D02*
X44450000Y-95190000D01*
D10*
X45386666Y-93642380D02*
X45386666Y-94356666D01*
X45339047Y-94499523D01*
X45243809Y-94594761D01*
X45100952Y-94642380D01*
X45005714Y-94642380D01*
X46386666Y-94642380D02*
X45815238Y-94642380D01*
X46100952Y-94642380D02*
X46100952Y-93642380D01*
X46005714Y-93785238D01*
X45910476Y-93880476D01*
X45815238Y-93928095D01*
%TD*%
%LPC*%
D12*
%TO.C,J1*%
X46990000Y-101600000D03*
X44450000Y-101600000D03*
X46990000Y-99060000D03*
X44450000Y-99060000D03*
X46990000Y-96520000D03*
D13*
X44450000Y-96520000D03*
%TD*%
D14*
%TO.C,USB1*%
X53656250Y-115134000D03*
X46356250Y-115134000D03*
X46356250Y-119634000D03*
X53656250Y-119634000D03*
%TD*%
D15*
%TO.C,MX9*%
X155733750Y-68262500D03*
X145573750Y-68262500D03*
D16*
X150653750Y-68262500D03*
%TD*%
D15*
%TO.C,MX5*%
X98742500Y-106362500D03*
X88582500Y-106362500D03*
D16*
X93662500Y-106362500D03*
%TD*%
D15*
%TO.C,MX1*%
X98742500Y-68262500D03*
X88582500Y-68262500D03*
D16*
X93662500Y-68262500D03*
%TD*%
D15*
%TO.C,MX6*%
X127317500Y-106362500D03*
X117157500Y-106362500D03*
D16*
X122237500Y-106362500D03*
%TD*%
D15*
%TO.C,MX8*%
X155892500Y-106362500D03*
X145732500Y-106362500D03*
D16*
X150812500Y-106362500D03*
%TD*%
D15*
%TO.C,MX7*%
X155892500Y-87312500D03*
X145732500Y-87312500D03*
D16*
X150812500Y-87312500D03*
%TD*%
D15*
%TO.C,MX2*%
X127317500Y-68262500D03*
X117157500Y-68262500D03*
D16*
X122237500Y-68262500D03*
%TD*%
D15*
%TO.C,MX4*%
X127317500Y-87312500D03*
X117157500Y-87312500D03*
D16*
X122237500Y-87312500D03*
%TD*%
D15*
%TO.C,MX3*%
X98742500Y-87312500D03*
X88582500Y-87312500D03*
D16*
X93662500Y-87312500D03*
%TD*%
M02*
