M48
; DRILL file {KiCad (5.1.10-1-10_14)} date Saturday, July 24, 2021 at 10:10:08 PM
; FORMAT={-:-/ absolute / inch / decimal}
; #@! TF.CreationDate,2021-07-24T22:10:08-05:00
; #@! TF.GenerationSoftware,Kicad,Pcbnew,(5.1.10-1-10_14)
; #@! TF.FileFunction,NonPlated,1,2,NPTH
FMAT,2
INCH
T1C0.0689
T2C0.1570
%
G90
G05
T1
X3.4875Y-2.6875
X3.4875Y-3.4375
X3.4875Y-4.1875
X3.8875Y-2.6875
X3.8875Y-3.4375
X3.8875Y-4.1875
X4.6125Y-2.6875
X4.6125Y-3.4375
X4.6125Y-4.1875
X5.0125Y-2.6875
X5.0125Y-3.4375
X5.0125Y-4.1875
X5.7313Y-2.6875
X5.7375Y-3.4375
X5.7375Y-4.1875
X6.1312Y-2.6875
X6.1375Y-3.4375
X6.1375Y-4.1875
T2
X3.6875Y-2.6875
X3.6875Y-3.4375
X3.6875Y-4.1875
X4.8125Y-2.6875
X4.8125Y-3.4375
X4.8125Y-4.1875
X5.9312Y-2.6875
X5.9375Y-3.4375
X5.9375Y-4.1875
T0
M30
