%TF.GenerationSoftware,KiCad,Pcbnew,(5.1.10-1-10_14)*%
%TF.CreationDate,2021-07-24T22:10:12-05:00*%
%TF.ProjectId,Untitled,556e7469-746c-4656-942e-6b696361645f,rev?*%
%TF.SameCoordinates,Original*%
%TF.FileFunction,Legend,Bot*%
%TF.FilePolarity,Positive*%
%FSLAX46Y46*%
G04 Gerber Fmt 4.6, Leading zero omitted, Abs format (unit mm)*
G04 Created by KiCad (PCBNEW (5.1.10-1-10_14)) date 2021-07-24 22:10:12*
%MOMM*%
%LPD*%
G01*
G04 APERTURE LIST*
%ADD10C,0.150000*%
%ADD11C,0.120000*%
%ADD12O,1.700000X1.700000*%
%ADD13R,1.700000X1.700000*%
%ADD14R,0.500000X2.250000*%
%ADD15O,1.700000X2.700000*%
%ADD16C,1.750000*%
%ADD17C,2.250000*%
%ADD18C,3.987800*%
%ADD19R,1.200000X0.900000*%
%ADD20R,1.400000X1.200000*%
%ADD21R,1.500000X0.550000*%
%ADD22R,0.550000X1.500000*%
%ADD23R,1.800000X1.100000*%
G04 APERTURE END LIST*
D10*
%TO.C,USB1*%
X53856250Y-119634000D02*
X53856250Y-114184000D01*
X46156250Y-119634000D02*
X46156250Y-114184000D01*
X53856250Y-114184000D02*
X46156250Y-114184000D01*
D11*
%TO.C,D9*%
X161337500Y-70512500D02*
X161337500Y-66612500D01*
X159337500Y-70512500D02*
X159337500Y-66612500D01*
X161337500Y-70512500D02*
X159337500Y-70512500D01*
%TO.C,D8*%
X161337500Y-108612500D02*
X161337500Y-104712500D01*
X159337500Y-108612500D02*
X159337500Y-104712500D01*
X161337500Y-108612500D02*
X159337500Y-108612500D01*
%TO.C,D7*%
X161337500Y-89562500D02*
X161337500Y-85662500D01*
X159337500Y-89562500D02*
X159337500Y-85662500D01*
X161337500Y-89562500D02*
X159337500Y-89562500D01*
%TO.C,D6*%
X131968750Y-107818750D02*
X131968750Y-103918750D01*
X129968750Y-107818750D02*
X129968750Y-103918750D01*
X131968750Y-107818750D02*
X129968750Y-107818750D01*
%TO.C,D5*%
X104187500Y-107025000D02*
X104187500Y-103125000D01*
X102187500Y-107025000D02*
X102187500Y-103125000D01*
X104187500Y-107025000D02*
X102187500Y-107025000D01*
%TO.C,Y1*%
X67087500Y-87375000D02*
X63087500Y-87375000D01*
X67087500Y-84075000D02*
X67087500Y-87375000D01*
D10*
%TO.C,U1*%
X59912500Y-101437500D02*
X58637500Y-101437500D01*
X70262500Y-102012500D02*
X69587500Y-102012500D01*
X70262500Y-91662500D02*
X69587500Y-91662500D01*
X59912500Y-91662500D02*
X60587500Y-91662500D01*
X59912500Y-102012500D02*
X60587500Y-102012500D01*
X59912500Y-91662500D02*
X59912500Y-92337500D01*
X70262500Y-91662500D02*
X70262500Y-92337500D01*
X70262500Y-102012500D02*
X70262500Y-101337500D01*
X59912500Y-102012500D02*
X59912500Y-101437500D01*
%TO.C,SW1*%
X48200000Y-91500000D02*
X53400000Y-91500000D01*
X53400000Y-91500000D02*
X53400000Y-86300000D01*
X53400000Y-86300000D02*
X48200000Y-86300000D01*
X48200000Y-86300000D02*
X48200000Y-91500000D01*
X51800000Y-88900000D02*
G75*
G03*
X51800000Y-88900000I-1000000J0D01*
G01*
D11*
%TO.C,R4*%
X73782250Y-104017814D02*
X73782250Y-103563686D01*
X75252250Y-104017814D02*
X75252250Y-103563686D01*
%TO.C,R3*%
X50065000Y-94683314D02*
X50065000Y-94229186D01*
X51535000Y-94683314D02*
X51535000Y-94229186D01*
%TO.C,R2*%
X51366686Y-108802500D02*
X51820814Y-108802500D01*
X51366686Y-110272500D02*
X51820814Y-110272500D01*
%TO.C,R1*%
X51366686Y-106834000D02*
X51820814Y-106834000D01*
X51366686Y-108304000D02*
X51820814Y-108304000D01*
%TO.C,F1*%
X58853750Y-111316686D02*
X58853750Y-112520814D01*
X57033750Y-111316686D02*
X57033750Y-112520814D01*
%TO.C,D2*%
X131968750Y-70512500D02*
X129968750Y-70512500D01*
X129968750Y-70512500D02*
X129968750Y-66612500D01*
X131968750Y-70512500D02*
X131968750Y-66612500D01*
%TO.C,D4*%
X131968750Y-89562500D02*
X129968750Y-89562500D01*
X129968750Y-89562500D02*
X129968750Y-85662500D01*
X131968750Y-89562500D02*
X131968750Y-85662500D01*
%TO.C,D3*%
X104187500Y-89562500D02*
X102187500Y-89562500D01*
X102187500Y-89562500D02*
X102187500Y-85662500D01*
X104187500Y-89562500D02*
X104187500Y-85662500D01*
%TO.C,D1*%
X105775000Y-70512500D02*
X103775000Y-70512500D01*
X103775000Y-70512500D02*
X103775000Y-66612500D01*
X105775000Y-70512500D02*
X105775000Y-66612500D01*
%TO.C,C7*%
X57091250Y-97369998D02*
X57091250Y-97892502D01*
X55621250Y-97369998D02*
X55621250Y-97892502D01*
%TO.C,C6*%
X69190502Y-105510000D02*
X68667998Y-105510000D01*
X69190502Y-104040000D02*
X68667998Y-104040000D01*
%TO.C,C5*%
X75179250Y-92495002D02*
X75179250Y-91972498D01*
X76649250Y-92495002D02*
X76649250Y-91972498D01*
%TO.C,C4*%
X61853750Y-85463748D02*
X61853750Y-85986252D01*
X60383750Y-85463748D02*
X60383750Y-85986252D01*
%TO.C,C3*%
X68321250Y-85986252D02*
X68321250Y-85463748D01*
X69791250Y-85986252D02*
X69791250Y-85463748D01*
%TO.C,C2*%
X56415000Y-89161252D02*
X56415000Y-88638748D01*
X57885000Y-89161252D02*
X57885000Y-88638748D01*
%TO.C,C1*%
X61651248Y-104833750D02*
X62173752Y-104833750D01*
X61651248Y-106303750D02*
X62173752Y-106303750D01*
%TO.C,USB1*%
D10*
X51744345Y-117054380D02*
X51744345Y-117863904D01*
X51696726Y-117959142D01*
X51649107Y-118006761D01*
X51553869Y-118054380D01*
X51363392Y-118054380D01*
X51268154Y-118006761D01*
X51220535Y-117959142D01*
X51172916Y-117863904D01*
X51172916Y-117054380D01*
X50744345Y-118006761D02*
X50601488Y-118054380D01*
X50363392Y-118054380D01*
X50268154Y-118006761D01*
X50220535Y-117959142D01*
X50172916Y-117863904D01*
X50172916Y-117768666D01*
X50220535Y-117673428D01*
X50268154Y-117625809D01*
X50363392Y-117578190D01*
X50553869Y-117530571D01*
X50649107Y-117482952D01*
X50696726Y-117435333D01*
X50744345Y-117340095D01*
X50744345Y-117244857D01*
X50696726Y-117149619D01*
X50649107Y-117102000D01*
X50553869Y-117054380D01*
X50315773Y-117054380D01*
X50172916Y-117102000D01*
X49411011Y-117530571D02*
X49268154Y-117578190D01*
X49220535Y-117625809D01*
X49172916Y-117721047D01*
X49172916Y-117863904D01*
X49220535Y-117959142D01*
X49268154Y-118006761D01*
X49363392Y-118054380D01*
X49744345Y-118054380D01*
X49744345Y-117054380D01*
X49411011Y-117054380D01*
X49315773Y-117102000D01*
X49268154Y-117149619D01*
X49220535Y-117244857D01*
X49220535Y-117340095D01*
X49268154Y-117435333D01*
X49315773Y-117482952D01*
X49411011Y-117530571D01*
X49744345Y-117530571D01*
X48220535Y-118054380D02*
X48791964Y-118054380D01*
X48506250Y-118054380D02*
X48506250Y-117054380D01*
X48601488Y-117197238D01*
X48696726Y-117292476D01*
X48791964Y-117340095D01*
%TO.C,D9*%
X162789880Y-67524404D02*
X161789880Y-67524404D01*
X161789880Y-67762500D01*
X161837500Y-67905357D01*
X161932738Y-68000595D01*
X162027976Y-68048214D01*
X162218452Y-68095833D01*
X162361309Y-68095833D01*
X162551785Y-68048214D01*
X162647023Y-68000595D01*
X162742261Y-67905357D01*
X162789880Y-67762500D01*
X162789880Y-67524404D01*
X162789880Y-68572023D02*
X162789880Y-68762500D01*
X162742261Y-68857738D01*
X162694642Y-68905357D01*
X162551785Y-69000595D01*
X162361309Y-69048214D01*
X161980357Y-69048214D01*
X161885119Y-69000595D01*
X161837500Y-68952976D01*
X161789880Y-68857738D01*
X161789880Y-68667261D01*
X161837500Y-68572023D01*
X161885119Y-68524404D01*
X161980357Y-68476785D01*
X162218452Y-68476785D01*
X162313690Y-68524404D01*
X162361309Y-68572023D01*
X162408928Y-68667261D01*
X162408928Y-68857738D01*
X162361309Y-68952976D01*
X162313690Y-69000595D01*
X162218452Y-69048214D01*
%TO.C,D8*%
X162789880Y-105624404D02*
X161789880Y-105624404D01*
X161789880Y-105862500D01*
X161837500Y-106005357D01*
X161932738Y-106100595D01*
X162027976Y-106148214D01*
X162218452Y-106195833D01*
X162361309Y-106195833D01*
X162551785Y-106148214D01*
X162647023Y-106100595D01*
X162742261Y-106005357D01*
X162789880Y-105862500D01*
X162789880Y-105624404D01*
X162218452Y-106767261D02*
X162170833Y-106672023D01*
X162123214Y-106624404D01*
X162027976Y-106576785D01*
X161980357Y-106576785D01*
X161885119Y-106624404D01*
X161837500Y-106672023D01*
X161789880Y-106767261D01*
X161789880Y-106957738D01*
X161837500Y-107052976D01*
X161885119Y-107100595D01*
X161980357Y-107148214D01*
X162027976Y-107148214D01*
X162123214Y-107100595D01*
X162170833Y-107052976D01*
X162218452Y-106957738D01*
X162218452Y-106767261D01*
X162266071Y-106672023D01*
X162313690Y-106624404D01*
X162408928Y-106576785D01*
X162599404Y-106576785D01*
X162694642Y-106624404D01*
X162742261Y-106672023D01*
X162789880Y-106767261D01*
X162789880Y-106957738D01*
X162742261Y-107052976D01*
X162694642Y-107100595D01*
X162599404Y-107148214D01*
X162408928Y-107148214D01*
X162313690Y-107100595D01*
X162266071Y-107052976D01*
X162218452Y-106957738D01*
%TO.C,D7*%
X162789880Y-86574404D02*
X161789880Y-86574404D01*
X161789880Y-86812500D01*
X161837500Y-86955357D01*
X161932738Y-87050595D01*
X162027976Y-87098214D01*
X162218452Y-87145833D01*
X162361309Y-87145833D01*
X162551785Y-87098214D01*
X162647023Y-87050595D01*
X162742261Y-86955357D01*
X162789880Y-86812500D01*
X162789880Y-86574404D01*
X161789880Y-87479166D02*
X161789880Y-88145833D01*
X162789880Y-87717261D01*
%TO.C,D6*%
X133421130Y-104830654D02*
X132421130Y-104830654D01*
X132421130Y-105068750D01*
X132468750Y-105211607D01*
X132563988Y-105306845D01*
X132659226Y-105354464D01*
X132849702Y-105402083D01*
X132992559Y-105402083D01*
X133183035Y-105354464D01*
X133278273Y-105306845D01*
X133373511Y-105211607D01*
X133421130Y-105068750D01*
X133421130Y-104830654D01*
X132421130Y-106259226D02*
X132421130Y-106068750D01*
X132468750Y-105973511D01*
X132516369Y-105925892D01*
X132659226Y-105830654D01*
X132849702Y-105783035D01*
X133230654Y-105783035D01*
X133325892Y-105830654D01*
X133373511Y-105878273D01*
X133421130Y-105973511D01*
X133421130Y-106163988D01*
X133373511Y-106259226D01*
X133325892Y-106306845D01*
X133230654Y-106354464D01*
X132992559Y-106354464D01*
X132897321Y-106306845D01*
X132849702Y-106259226D01*
X132802083Y-106163988D01*
X132802083Y-105973511D01*
X132849702Y-105878273D01*
X132897321Y-105830654D01*
X132992559Y-105783035D01*
%TO.C,D5*%
X105639880Y-104036904D02*
X104639880Y-104036904D01*
X104639880Y-104275000D01*
X104687500Y-104417857D01*
X104782738Y-104513095D01*
X104877976Y-104560714D01*
X105068452Y-104608333D01*
X105211309Y-104608333D01*
X105401785Y-104560714D01*
X105497023Y-104513095D01*
X105592261Y-104417857D01*
X105639880Y-104275000D01*
X105639880Y-104036904D01*
X104639880Y-105513095D02*
X104639880Y-105036904D01*
X105116071Y-104989285D01*
X105068452Y-105036904D01*
X105020833Y-105132142D01*
X105020833Y-105370238D01*
X105068452Y-105465476D01*
X105116071Y-105513095D01*
X105211309Y-105560714D01*
X105449404Y-105560714D01*
X105544642Y-105513095D01*
X105592261Y-105465476D01*
X105639880Y-105370238D01*
X105639880Y-105132142D01*
X105592261Y-105036904D01*
X105544642Y-104989285D01*
%TO.C,Y1*%
X65563690Y-83251190D02*
X65563690Y-83727380D01*
X65897023Y-82727380D02*
X65563690Y-83251190D01*
X65230357Y-82727380D01*
X64373214Y-83727380D02*
X64944642Y-83727380D01*
X64658928Y-83727380D02*
X64658928Y-82727380D01*
X64754166Y-82870238D01*
X64849404Y-82965476D01*
X64944642Y-83013095D01*
%TO.C,U1*%
X65849404Y-103739880D02*
X65849404Y-104549404D01*
X65801785Y-104644642D01*
X65754166Y-104692261D01*
X65658928Y-104739880D01*
X65468452Y-104739880D01*
X65373214Y-104692261D01*
X65325595Y-104644642D01*
X65277976Y-104549404D01*
X65277976Y-103739880D01*
X64277976Y-104739880D02*
X64849404Y-104739880D01*
X64563690Y-104739880D02*
X64563690Y-103739880D01*
X64658928Y-103882738D01*
X64754166Y-103977976D01*
X64849404Y-104025595D01*
%TO.C,SW1*%
X52133333Y-85240761D02*
X51990476Y-85288380D01*
X51752380Y-85288380D01*
X51657142Y-85240761D01*
X51609523Y-85193142D01*
X51561904Y-85097904D01*
X51561904Y-85002666D01*
X51609523Y-84907428D01*
X51657142Y-84859809D01*
X51752380Y-84812190D01*
X51942857Y-84764571D01*
X52038095Y-84716952D01*
X52085714Y-84669333D01*
X52133333Y-84574095D01*
X52133333Y-84478857D01*
X52085714Y-84383619D01*
X52038095Y-84336000D01*
X51942857Y-84288380D01*
X51704761Y-84288380D01*
X51561904Y-84336000D01*
X51228571Y-84288380D02*
X50990476Y-85288380D01*
X50800000Y-84574095D01*
X50609523Y-85288380D01*
X50371428Y-84288380D01*
X49466666Y-85288380D02*
X50038095Y-85288380D01*
X49752380Y-85288380D02*
X49752380Y-84288380D01*
X49847619Y-84431238D01*
X49942857Y-84526476D01*
X50038095Y-84574095D01*
%TO.C,R4*%
X76619630Y-103624083D02*
X76143440Y-103290750D01*
X76619630Y-103052654D02*
X75619630Y-103052654D01*
X75619630Y-103433607D01*
X75667250Y-103528845D01*
X75714869Y-103576464D01*
X75810107Y-103624083D01*
X75952964Y-103624083D01*
X76048202Y-103576464D01*
X76095821Y-103528845D01*
X76143440Y-103433607D01*
X76143440Y-103052654D01*
X75952964Y-104481226D02*
X76619630Y-104481226D01*
X75572011Y-104243130D02*
X76286297Y-104005035D01*
X76286297Y-104624083D01*
%TO.C,R3*%
X52902380Y-94289583D02*
X52426190Y-93956250D01*
X52902380Y-93718154D02*
X51902380Y-93718154D01*
X51902380Y-94099107D01*
X51950000Y-94194345D01*
X51997619Y-94241964D01*
X52092857Y-94289583D01*
X52235714Y-94289583D01*
X52330952Y-94241964D01*
X52378571Y-94194345D01*
X52426190Y-94099107D01*
X52426190Y-93718154D01*
X51902380Y-94622916D02*
X51902380Y-95241964D01*
X52283333Y-94908630D01*
X52283333Y-95051488D01*
X52330952Y-95146726D01*
X52378571Y-95194345D01*
X52473809Y-95241964D01*
X52711904Y-95241964D01*
X52807142Y-95194345D01*
X52854761Y-95146726D01*
X52902380Y-95051488D01*
X52902380Y-94765773D01*
X52854761Y-94670535D01*
X52807142Y-94622916D01*
%TO.C,R2*%
X51760416Y-111639880D02*
X52093750Y-111163690D01*
X52331845Y-111639880D02*
X52331845Y-110639880D01*
X51950892Y-110639880D01*
X51855654Y-110687500D01*
X51808035Y-110735119D01*
X51760416Y-110830357D01*
X51760416Y-110973214D01*
X51808035Y-111068452D01*
X51855654Y-111116071D01*
X51950892Y-111163690D01*
X52331845Y-111163690D01*
X51379464Y-110735119D02*
X51331845Y-110687500D01*
X51236607Y-110639880D01*
X50998511Y-110639880D01*
X50903273Y-110687500D01*
X50855654Y-110735119D01*
X50808035Y-110830357D01*
X50808035Y-110925595D01*
X50855654Y-111068452D01*
X51427083Y-111639880D01*
X50808035Y-111639880D01*
%TO.C,R1*%
X51760416Y-109671380D02*
X52093750Y-109195190D01*
X52331845Y-109671380D02*
X52331845Y-108671380D01*
X51950892Y-108671380D01*
X51855654Y-108719000D01*
X51808035Y-108766619D01*
X51760416Y-108861857D01*
X51760416Y-109004714D01*
X51808035Y-109099952D01*
X51855654Y-109147571D01*
X51950892Y-109195190D01*
X52331845Y-109195190D01*
X50808035Y-109671380D02*
X51379464Y-109671380D01*
X51093750Y-109671380D02*
X51093750Y-108671380D01*
X51188988Y-108814238D01*
X51284226Y-108909476D01*
X51379464Y-108957095D01*
%TO.C,F1*%
X56052321Y-111585416D02*
X56052321Y-111252083D01*
X56576130Y-111252083D02*
X55576130Y-111252083D01*
X55576130Y-111728273D01*
X56576130Y-112633035D02*
X56576130Y-112061607D01*
X56576130Y-112347321D02*
X55576130Y-112347321D01*
X55718988Y-112252083D01*
X55814226Y-112156845D01*
X55861845Y-112061607D01*
%TO.C,D2*%
X133421130Y-67524404D02*
X132421130Y-67524404D01*
X132421130Y-67762500D01*
X132468750Y-67905357D01*
X132563988Y-68000595D01*
X132659226Y-68048214D01*
X132849702Y-68095833D01*
X132992559Y-68095833D01*
X133183035Y-68048214D01*
X133278273Y-68000595D01*
X133373511Y-67905357D01*
X133421130Y-67762500D01*
X133421130Y-67524404D01*
X132516369Y-68476785D02*
X132468750Y-68524404D01*
X132421130Y-68619642D01*
X132421130Y-68857738D01*
X132468750Y-68952976D01*
X132516369Y-69000595D01*
X132611607Y-69048214D01*
X132706845Y-69048214D01*
X132849702Y-69000595D01*
X133421130Y-68429166D01*
X133421130Y-69048214D01*
%TO.C,D4*%
X133421130Y-86574404D02*
X132421130Y-86574404D01*
X132421130Y-86812500D01*
X132468750Y-86955357D01*
X132563988Y-87050595D01*
X132659226Y-87098214D01*
X132849702Y-87145833D01*
X132992559Y-87145833D01*
X133183035Y-87098214D01*
X133278273Y-87050595D01*
X133373511Y-86955357D01*
X133421130Y-86812500D01*
X133421130Y-86574404D01*
X132754464Y-88002976D02*
X133421130Y-88002976D01*
X132373511Y-87764880D02*
X133087797Y-87526785D01*
X133087797Y-88145833D01*
%TO.C,D3*%
X105639880Y-86574404D02*
X104639880Y-86574404D01*
X104639880Y-86812500D01*
X104687500Y-86955357D01*
X104782738Y-87050595D01*
X104877976Y-87098214D01*
X105068452Y-87145833D01*
X105211309Y-87145833D01*
X105401785Y-87098214D01*
X105497023Y-87050595D01*
X105592261Y-86955357D01*
X105639880Y-86812500D01*
X105639880Y-86574404D01*
X104639880Y-87479166D02*
X104639880Y-88098214D01*
X105020833Y-87764880D01*
X105020833Y-87907738D01*
X105068452Y-88002976D01*
X105116071Y-88050595D01*
X105211309Y-88098214D01*
X105449404Y-88098214D01*
X105544642Y-88050595D01*
X105592261Y-88002976D01*
X105639880Y-87907738D01*
X105639880Y-87622023D01*
X105592261Y-87526785D01*
X105544642Y-87479166D01*
%TO.C,D1*%
X107227380Y-67524404D02*
X106227380Y-67524404D01*
X106227380Y-67762500D01*
X106275000Y-67905357D01*
X106370238Y-68000595D01*
X106465476Y-68048214D01*
X106655952Y-68095833D01*
X106798809Y-68095833D01*
X106989285Y-68048214D01*
X107084523Y-68000595D01*
X107179761Y-67905357D01*
X107227380Y-67762500D01*
X107227380Y-67524404D01*
X107227380Y-69048214D02*
X107227380Y-68476785D01*
X107227380Y-68762500D02*
X106227380Y-68762500D01*
X106370238Y-68667261D01*
X106465476Y-68572023D01*
X106513095Y-68476785D01*
%TO.C,C7*%
X55033392Y-97464583D02*
X55081011Y-97416964D01*
X55128630Y-97274107D01*
X55128630Y-97178869D01*
X55081011Y-97036011D01*
X54985773Y-96940773D01*
X54890535Y-96893154D01*
X54700059Y-96845535D01*
X54557202Y-96845535D01*
X54366726Y-96893154D01*
X54271488Y-96940773D01*
X54176250Y-97036011D01*
X54128630Y-97178869D01*
X54128630Y-97274107D01*
X54176250Y-97416964D01*
X54223869Y-97464583D01*
X54128630Y-97797916D02*
X54128630Y-98464583D01*
X55128630Y-98036011D01*
%TO.C,C6*%
X69095916Y-103452142D02*
X69143535Y-103499761D01*
X69286392Y-103547380D01*
X69381630Y-103547380D01*
X69524488Y-103499761D01*
X69619726Y-103404523D01*
X69667345Y-103309285D01*
X69714964Y-103118809D01*
X69714964Y-102975952D01*
X69667345Y-102785476D01*
X69619726Y-102690238D01*
X69524488Y-102595000D01*
X69381630Y-102547380D01*
X69286392Y-102547380D01*
X69143535Y-102595000D01*
X69095916Y-102642619D01*
X68238773Y-102547380D02*
X68429250Y-102547380D01*
X68524488Y-102595000D01*
X68572107Y-102642619D01*
X68667345Y-102785476D01*
X68714964Y-102975952D01*
X68714964Y-103356904D01*
X68667345Y-103452142D01*
X68619726Y-103499761D01*
X68524488Y-103547380D01*
X68334011Y-103547380D01*
X68238773Y-103499761D01*
X68191154Y-103452142D01*
X68143535Y-103356904D01*
X68143535Y-103118809D01*
X68191154Y-103023571D01*
X68238773Y-102975952D01*
X68334011Y-102928333D01*
X68524488Y-102928333D01*
X68619726Y-102975952D01*
X68667345Y-103023571D01*
X68714964Y-103118809D01*
%TO.C,C5*%
X77951392Y-92067083D02*
X77999011Y-92019464D01*
X78046630Y-91876607D01*
X78046630Y-91781369D01*
X77999011Y-91638511D01*
X77903773Y-91543273D01*
X77808535Y-91495654D01*
X77618059Y-91448035D01*
X77475202Y-91448035D01*
X77284726Y-91495654D01*
X77189488Y-91543273D01*
X77094250Y-91638511D01*
X77046630Y-91781369D01*
X77046630Y-91876607D01*
X77094250Y-92019464D01*
X77141869Y-92067083D01*
X77046630Y-92971845D02*
X77046630Y-92495654D01*
X77522821Y-92448035D01*
X77475202Y-92495654D01*
X77427583Y-92590892D01*
X77427583Y-92828988D01*
X77475202Y-92924226D01*
X77522821Y-92971845D01*
X77618059Y-93019464D01*
X77856154Y-93019464D01*
X77951392Y-92971845D01*
X77999011Y-92924226D01*
X78046630Y-92828988D01*
X78046630Y-92590892D01*
X77999011Y-92495654D01*
X77951392Y-92448035D01*
%TO.C,C4*%
X59795892Y-85558333D02*
X59843511Y-85510714D01*
X59891130Y-85367857D01*
X59891130Y-85272619D01*
X59843511Y-85129761D01*
X59748273Y-85034523D01*
X59653035Y-84986904D01*
X59462559Y-84939285D01*
X59319702Y-84939285D01*
X59129226Y-84986904D01*
X59033988Y-85034523D01*
X58938750Y-85129761D01*
X58891130Y-85272619D01*
X58891130Y-85367857D01*
X58938750Y-85510714D01*
X58986369Y-85558333D01*
X59224464Y-86415476D02*
X59891130Y-86415476D01*
X58843511Y-86177380D02*
X59557797Y-85939285D01*
X59557797Y-86558333D01*
%TO.C,C3*%
X71093392Y-85558333D02*
X71141011Y-85510714D01*
X71188630Y-85367857D01*
X71188630Y-85272619D01*
X71141011Y-85129761D01*
X71045773Y-85034523D01*
X70950535Y-84986904D01*
X70760059Y-84939285D01*
X70617202Y-84939285D01*
X70426726Y-84986904D01*
X70331488Y-85034523D01*
X70236250Y-85129761D01*
X70188630Y-85272619D01*
X70188630Y-85367857D01*
X70236250Y-85510714D01*
X70283869Y-85558333D01*
X70188630Y-85891666D02*
X70188630Y-86510714D01*
X70569583Y-86177380D01*
X70569583Y-86320238D01*
X70617202Y-86415476D01*
X70664821Y-86463095D01*
X70760059Y-86510714D01*
X70998154Y-86510714D01*
X71093392Y-86463095D01*
X71141011Y-86415476D01*
X71188630Y-86320238D01*
X71188630Y-86034523D01*
X71141011Y-85939285D01*
X71093392Y-85891666D01*
%TO.C,C2*%
X59187142Y-88733333D02*
X59234761Y-88685714D01*
X59282380Y-88542857D01*
X59282380Y-88447619D01*
X59234761Y-88304761D01*
X59139523Y-88209523D01*
X59044285Y-88161904D01*
X58853809Y-88114285D01*
X58710952Y-88114285D01*
X58520476Y-88161904D01*
X58425238Y-88209523D01*
X58330000Y-88304761D01*
X58282380Y-88447619D01*
X58282380Y-88542857D01*
X58330000Y-88685714D01*
X58377619Y-88733333D01*
X58377619Y-89114285D02*
X58330000Y-89161904D01*
X58282380Y-89257142D01*
X58282380Y-89495238D01*
X58330000Y-89590476D01*
X58377619Y-89638095D01*
X58472857Y-89685714D01*
X58568095Y-89685714D01*
X58710952Y-89638095D01*
X59282380Y-89066666D01*
X59282380Y-89685714D01*
%TO.C,C1*%
X62079166Y-107605892D02*
X62126785Y-107653511D01*
X62269642Y-107701130D01*
X62364880Y-107701130D01*
X62507738Y-107653511D01*
X62602976Y-107558273D01*
X62650595Y-107463035D01*
X62698214Y-107272559D01*
X62698214Y-107129702D01*
X62650595Y-106939226D01*
X62602976Y-106843988D01*
X62507738Y-106748750D01*
X62364880Y-106701130D01*
X62269642Y-106701130D01*
X62126785Y-106748750D01*
X62079166Y-106796369D01*
X61126785Y-107701130D02*
X61698214Y-107701130D01*
X61412500Y-107701130D02*
X61412500Y-106701130D01*
X61507738Y-106843988D01*
X61602976Y-106939226D01*
X61698214Y-106986845D01*
%TD*%
%LPC*%
D12*
%TO.C,J1*%
X46990000Y-101600000D03*
X44450000Y-101600000D03*
X46990000Y-99060000D03*
X44450000Y-99060000D03*
X46990000Y-96520000D03*
D13*
X44450000Y-96520000D03*
%TD*%
D14*
%TO.C,USB1*%
X48406250Y-115134000D03*
X49206250Y-115134000D03*
X50006250Y-115134000D03*
X50806250Y-115134000D03*
X51606250Y-115134000D03*
D15*
X53656250Y-115134000D03*
X46356250Y-115134000D03*
X46356250Y-119634000D03*
X53656250Y-119634000D03*
%TD*%
D16*
%TO.C,MX9*%
X155733750Y-68262500D03*
X145573750Y-68262500D03*
D17*
X148153750Y-64262500D03*
D18*
X150653750Y-68262500D03*
G36*
G01*
X146092438Y-66559850D02*
X146092433Y-66559845D01*
G75*
G02*
X146006405Y-64971183I751317J837345D01*
G01*
X147316407Y-63511183D01*
G75*
G02*
X148905069Y-63425155I837345J-751317D01*
G01*
X148905069Y-63425155D01*
G75*
G02*
X148991097Y-65013817I-751317J-837345D01*
G01*
X147681095Y-66473817D01*
G75*
G02*
X146092433Y-66559845I-837345J751317D01*
G01*
G37*
D17*
X153193750Y-63182500D03*
G36*
G01*
X153077233Y-64884895D02*
X153076347Y-64884834D01*
G75*
G02*
X152031416Y-63685097I77403J1122334D01*
G01*
X152071416Y-63105097D01*
G75*
G02*
X153271153Y-62060166I1122334J-77403D01*
G01*
X153271153Y-62060166D01*
G75*
G02*
X154316084Y-63259903I-77403J-1122334D01*
G01*
X154276084Y-63839903D01*
G75*
G02*
X153076347Y-64884834I-1122334J77403D01*
G01*
G37*
%TD*%
D16*
%TO.C,MX5*%
X98742500Y-106362500D03*
X88582500Y-106362500D03*
D17*
X91162500Y-102362500D03*
D18*
X93662500Y-106362500D03*
G36*
G01*
X89101188Y-104659850D02*
X89101183Y-104659845D01*
G75*
G02*
X89015155Y-103071183I751317J837345D01*
G01*
X90325157Y-101611183D01*
G75*
G02*
X91913819Y-101525155I837345J-751317D01*
G01*
X91913819Y-101525155D01*
G75*
G02*
X91999847Y-103113817I-751317J-837345D01*
G01*
X90689845Y-104573817D01*
G75*
G02*
X89101183Y-104659845I-837345J751317D01*
G01*
G37*
D17*
X96202500Y-101282500D03*
G36*
G01*
X96085983Y-102984895D02*
X96085097Y-102984834D01*
G75*
G02*
X95040166Y-101785097I77403J1122334D01*
G01*
X95080166Y-101205097D01*
G75*
G02*
X96279903Y-100160166I1122334J-77403D01*
G01*
X96279903Y-100160166D01*
G75*
G02*
X97324834Y-101359903I-77403J-1122334D01*
G01*
X97284834Y-101939903D01*
G75*
G02*
X96085097Y-102984834I-1122334J77403D01*
G01*
G37*
%TD*%
D16*
%TO.C,MX1*%
X98742500Y-68262500D03*
X88582500Y-68262500D03*
D17*
X91162500Y-64262500D03*
D18*
X93662500Y-68262500D03*
G36*
G01*
X89101188Y-66559850D02*
X89101183Y-66559845D01*
G75*
G02*
X89015155Y-64971183I751317J837345D01*
G01*
X90325157Y-63511183D01*
G75*
G02*
X91913819Y-63425155I837345J-751317D01*
G01*
X91913819Y-63425155D01*
G75*
G02*
X91999847Y-65013817I-751317J-837345D01*
G01*
X90689845Y-66473817D01*
G75*
G02*
X89101183Y-66559845I-837345J751317D01*
G01*
G37*
D17*
X96202500Y-63182500D03*
G36*
G01*
X96085983Y-64884895D02*
X96085097Y-64884834D01*
G75*
G02*
X95040166Y-63685097I77403J1122334D01*
G01*
X95080166Y-63105097D01*
G75*
G02*
X96279903Y-62060166I1122334J-77403D01*
G01*
X96279903Y-62060166D01*
G75*
G02*
X97324834Y-63259903I-77403J-1122334D01*
G01*
X97284834Y-63839903D01*
G75*
G02*
X96085097Y-64884834I-1122334J77403D01*
G01*
G37*
%TD*%
D16*
%TO.C,MX6*%
X127317500Y-106362500D03*
X117157500Y-106362500D03*
D17*
X119737500Y-102362500D03*
D18*
X122237500Y-106362500D03*
G36*
G01*
X117676188Y-104659850D02*
X117676183Y-104659845D01*
G75*
G02*
X117590155Y-103071183I751317J837345D01*
G01*
X118900157Y-101611183D01*
G75*
G02*
X120488819Y-101525155I837345J-751317D01*
G01*
X120488819Y-101525155D01*
G75*
G02*
X120574847Y-103113817I-751317J-837345D01*
G01*
X119264845Y-104573817D01*
G75*
G02*
X117676183Y-104659845I-837345J751317D01*
G01*
G37*
D17*
X124777500Y-101282500D03*
G36*
G01*
X124660983Y-102984895D02*
X124660097Y-102984834D01*
G75*
G02*
X123615166Y-101785097I77403J1122334D01*
G01*
X123655166Y-101205097D01*
G75*
G02*
X124854903Y-100160166I1122334J-77403D01*
G01*
X124854903Y-100160166D01*
G75*
G02*
X125899834Y-101359903I-77403J-1122334D01*
G01*
X125859834Y-101939903D01*
G75*
G02*
X124660097Y-102984834I-1122334J77403D01*
G01*
G37*
%TD*%
D16*
%TO.C,MX8*%
X155892500Y-106362500D03*
X145732500Y-106362500D03*
D17*
X148312500Y-102362500D03*
D18*
X150812500Y-106362500D03*
G36*
G01*
X146251188Y-104659850D02*
X146251183Y-104659845D01*
G75*
G02*
X146165155Y-103071183I751317J837345D01*
G01*
X147475157Y-101611183D01*
G75*
G02*
X149063819Y-101525155I837345J-751317D01*
G01*
X149063819Y-101525155D01*
G75*
G02*
X149149847Y-103113817I-751317J-837345D01*
G01*
X147839845Y-104573817D01*
G75*
G02*
X146251183Y-104659845I-837345J751317D01*
G01*
G37*
D17*
X153352500Y-101282500D03*
G36*
G01*
X153235983Y-102984895D02*
X153235097Y-102984834D01*
G75*
G02*
X152190166Y-101785097I77403J1122334D01*
G01*
X152230166Y-101205097D01*
G75*
G02*
X153429903Y-100160166I1122334J-77403D01*
G01*
X153429903Y-100160166D01*
G75*
G02*
X154474834Y-101359903I-77403J-1122334D01*
G01*
X154434834Y-101939903D01*
G75*
G02*
X153235097Y-102984834I-1122334J77403D01*
G01*
G37*
%TD*%
D16*
%TO.C,MX7*%
X155892500Y-87312500D03*
X145732500Y-87312500D03*
D17*
X148312500Y-83312500D03*
D18*
X150812500Y-87312500D03*
G36*
G01*
X146251188Y-85609850D02*
X146251183Y-85609845D01*
G75*
G02*
X146165155Y-84021183I751317J837345D01*
G01*
X147475157Y-82561183D01*
G75*
G02*
X149063819Y-82475155I837345J-751317D01*
G01*
X149063819Y-82475155D01*
G75*
G02*
X149149847Y-84063817I-751317J-837345D01*
G01*
X147839845Y-85523817D01*
G75*
G02*
X146251183Y-85609845I-837345J751317D01*
G01*
G37*
D17*
X153352500Y-82232500D03*
G36*
G01*
X153235983Y-83934895D02*
X153235097Y-83934834D01*
G75*
G02*
X152190166Y-82735097I77403J1122334D01*
G01*
X152230166Y-82155097D01*
G75*
G02*
X153429903Y-81110166I1122334J-77403D01*
G01*
X153429903Y-81110166D01*
G75*
G02*
X154474834Y-82309903I-77403J-1122334D01*
G01*
X154434834Y-82889903D01*
G75*
G02*
X153235097Y-83934834I-1122334J77403D01*
G01*
G37*
%TD*%
D19*
%TO.C,D9*%
X160337500Y-66612500D03*
X160337500Y-69912500D03*
%TD*%
%TO.C,D8*%
X160337500Y-104712500D03*
X160337500Y-108012500D03*
%TD*%
%TO.C,D7*%
X160337500Y-85662500D03*
X160337500Y-88962500D03*
%TD*%
%TO.C,D6*%
X130968750Y-103918750D03*
X130968750Y-107218750D03*
%TD*%
%TO.C,D5*%
X103187500Y-103125000D03*
X103187500Y-106425000D03*
%TD*%
D20*
%TO.C,Y1*%
X66187500Y-86575000D03*
X63987500Y-86575000D03*
X63987500Y-84875000D03*
X66187500Y-84875000D03*
%TD*%
D21*
%TO.C,U1*%
X59387500Y-100837500D03*
X59387500Y-100037500D03*
X59387500Y-99237500D03*
X59387500Y-98437500D03*
X59387500Y-97637500D03*
X59387500Y-96837500D03*
X59387500Y-96037500D03*
X59387500Y-95237500D03*
X59387500Y-94437500D03*
X59387500Y-93637500D03*
X59387500Y-92837500D03*
D22*
X61087500Y-91137500D03*
X61887500Y-91137500D03*
X62687500Y-91137500D03*
X63487500Y-91137500D03*
X64287500Y-91137500D03*
X65087500Y-91137500D03*
X65887500Y-91137500D03*
X66687500Y-91137500D03*
X67487500Y-91137500D03*
X68287500Y-91137500D03*
X69087500Y-91137500D03*
D21*
X70787500Y-92837500D03*
X70787500Y-93637500D03*
X70787500Y-94437500D03*
X70787500Y-95237500D03*
X70787500Y-96037500D03*
X70787500Y-96837500D03*
X70787500Y-97637500D03*
X70787500Y-98437500D03*
X70787500Y-99237500D03*
X70787500Y-100037500D03*
X70787500Y-100837500D03*
D22*
X69087500Y-102537500D03*
X68287500Y-102537500D03*
X67487500Y-102537500D03*
X66687500Y-102537500D03*
X65887500Y-102537500D03*
X65087500Y-102537500D03*
X64287500Y-102537500D03*
X63487500Y-102537500D03*
X62687500Y-102537500D03*
X61887500Y-102537500D03*
X61087500Y-102537500D03*
%TD*%
D23*
%TO.C,SW1*%
X53900000Y-87050000D03*
X47700000Y-90750000D03*
X53900000Y-90750000D03*
X47700000Y-87050000D03*
%TD*%
%TO.C,R4*%
G36*
G01*
X74967252Y-105215750D02*
X74067248Y-105215750D01*
G75*
G02*
X73817250Y-104965752I0J249998D01*
G01*
X73817250Y-104440748D01*
G75*
G02*
X74067248Y-104190750I249998J0D01*
G01*
X74967252Y-104190750D01*
G75*
G02*
X75217250Y-104440748I0J-249998D01*
G01*
X75217250Y-104965752D01*
G75*
G02*
X74967252Y-105215750I-249998J0D01*
G01*
G37*
G36*
G01*
X74967252Y-103390750D02*
X74067248Y-103390750D01*
G75*
G02*
X73817250Y-103140752I0J249998D01*
G01*
X73817250Y-102615748D01*
G75*
G02*
X74067248Y-102365750I249998J0D01*
G01*
X74967252Y-102365750D01*
G75*
G02*
X75217250Y-102615748I0J-249998D01*
G01*
X75217250Y-103140752D01*
G75*
G02*
X74967252Y-103390750I-249998J0D01*
G01*
G37*
%TD*%
%TO.C,R3*%
G36*
G01*
X51250002Y-95881250D02*
X50349998Y-95881250D01*
G75*
G02*
X50100000Y-95631252I0J249998D01*
G01*
X50100000Y-95106248D01*
G75*
G02*
X50349998Y-94856250I249998J0D01*
G01*
X51250002Y-94856250D01*
G75*
G02*
X51500000Y-95106248I0J-249998D01*
G01*
X51500000Y-95631252D01*
G75*
G02*
X51250002Y-95881250I-249998J0D01*
G01*
G37*
G36*
G01*
X51250002Y-94056250D02*
X50349998Y-94056250D01*
G75*
G02*
X50100000Y-93806252I0J249998D01*
G01*
X50100000Y-93281248D01*
G75*
G02*
X50349998Y-93031250I249998J0D01*
G01*
X51250002Y-93031250D01*
G75*
G02*
X51500000Y-93281248I0J-249998D01*
G01*
X51500000Y-93806252D01*
G75*
G02*
X51250002Y-94056250I-249998J0D01*
G01*
G37*
%TD*%
%TO.C,R2*%
G36*
G01*
X50168750Y-109987502D02*
X50168750Y-109087498D01*
G75*
G02*
X50418748Y-108837500I249998J0D01*
G01*
X50943752Y-108837500D01*
G75*
G02*
X51193750Y-109087498I0J-249998D01*
G01*
X51193750Y-109987502D01*
G75*
G02*
X50943752Y-110237500I-249998J0D01*
G01*
X50418748Y-110237500D01*
G75*
G02*
X50168750Y-109987502I0J249998D01*
G01*
G37*
G36*
G01*
X51993750Y-109987502D02*
X51993750Y-109087498D01*
G75*
G02*
X52243748Y-108837500I249998J0D01*
G01*
X52768752Y-108837500D01*
G75*
G02*
X53018750Y-109087498I0J-249998D01*
G01*
X53018750Y-109987502D01*
G75*
G02*
X52768752Y-110237500I-249998J0D01*
G01*
X52243748Y-110237500D01*
G75*
G02*
X51993750Y-109987502I0J249998D01*
G01*
G37*
%TD*%
%TO.C,R1*%
G36*
G01*
X50168750Y-108019002D02*
X50168750Y-107118998D01*
G75*
G02*
X50418748Y-106869000I249998J0D01*
G01*
X50943752Y-106869000D01*
G75*
G02*
X51193750Y-107118998I0J-249998D01*
G01*
X51193750Y-108019002D01*
G75*
G02*
X50943752Y-108269000I-249998J0D01*
G01*
X50418748Y-108269000D01*
G75*
G02*
X50168750Y-108019002I0J249998D01*
G01*
G37*
G36*
G01*
X51993750Y-108019002D02*
X51993750Y-107118998D01*
G75*
G02*
X52243748Y-106869000I249998J0D01*
G01*
X52768752Y-106869000D01*
G75*
G02*
X53018750Y-107118998I0J-249998D01*
G01*
X53018750Y-108019002D01*
G75*
G02*
X52768752Y-108269000I-249998J0D01*
G01*
X52243748Y-108269000D01*
G75*
G02*
X51993750Y-108019002I0J249998D01*
G01*
G37*
%TD*%
D16*
%TO.C,MX2*%
X127317500Y-68262500D03*
X117157500Y-68262500D03*
D17*
X119737500Y-64262500D03*
D18*
X122237500Y-68262500D03*
G36*
G01*
X117676188Y-66559850D02*
X117676183Y-66559845D01*
G75*
G02*
X117590155Y-64971183I751317J837345D01*
G01*
X118900157Y-63511183D01*
G75*
G02*
X120488819Y-63425155I837345J-751317D01*
G01*
X120488819Y-63425155D01*
G75*
G02*
X120574847Y-65013817I-751317J-837345D01*
G01*
X119264845Y-66473817D01*
G75*
G02*
X117676183Y-66559845I-837345J751317D01*
G01*
G37*
D17*
X124777500Y-63182500D03*
G36*
G01*
X124660983Y-64884895D02*
X124660097Y-64884834D01*
G75*
G02*
X123615166Y-63685097I77403J1122334D01*
G01*
X123655166Y-63105097D01*
G75*
G02*
X124854903Y-62060166I1122334J-77403D01*
G01*
X124854903Y-62060166D01*
G75*
G02*
X125899834Y-63259903I-77403J-1122334D01*
G01*
X125859834Y-63839903D01*
G75*
G02*
X124660097Y-64884834I-1122334J77403D01*
G01*
G37*
%TD*%
D16*
%TO.C,MX4*%
X127317500Y-87312500D03*
X117157500Y-87312500D03*
D17*
X119737500Y-83312500D03*
D18*
X122237500Y-87312500D03*
G36*
G01*
X117676188Y-85609850D02*
X117676183Y-85609845D01*
G75*
G02*
X117590155Y-84021183I751317J837345D01*
G01*
X118900157Y-82561183D01*
G75*
G02*
X120488819Y-82475155I837345J-751317D01*
G01*
X120488819Y-82475155D01*
G75*
G02*
X120574847Y-84063817I-751317J-837345D01*
G01*
X119264845Y-85523817D01*
G75*
G02*
X117676183Y-85609845I-837345J751317D01*
G01*
G37*
D17*
X124777500Y-82232500D03*
G36*
G01*
X124660983Y-83934895D02*
X124660097Y-83934834D01*
G75*
G02*
X123615166Y-82735097I77403J1122334D01*
G01*
X123655166Y-82155097D01*
G75*
G02*
X124854903Y-81110166I1122334J-77403D01*
G01*
X124854903Y-81110166D01*
G75*
G02*
X125899834Y-82309903I-77403J-1122334D01*
G01*
X125859834Y-82889903D01*
G75*
G02*
X124660097Y-83934834I-1122334J77403D01*
G01*
G37*
%TD*%
D16*
%TO.C,MX3*%
X98742500Y-87312500D03*
X88582500Y-87312500D03*
D17*
X91162500Y-83312500D03*
D18*
X93662500Y-87312500D03*
G36*
G01*
X89101188Y-85609850D02*
X89101183Y-85609845D01*
G75*
G02*
X89015155Y-84021183I751317J837345D01*
G01*
X90325157Y-82561183D01*
G75*
G02*
X91913819Y-82475155I837345J-751317D01*
G01*
X91913819Y-82475155D01*
G75*
G02*
X91999847Y-84063817I-751317J-837345D01*
G01*
X90689845Y-85523817D01*
G75*
G02*
X89101183Y-85609845I-837345J751317D01*
G01*
G37*
D17*
X96202500Y-82232500D03*
G36*
G01*
X96085983Y-83934895D02*
X96085097Y-83934834D01*
G75*
G02*
X95040166Y-82735097I77403J1122334D01*
G01*
X95080166Y-82155097D01*
G75*
G02*
X96279903Y-81110166I1122334J-77403D01*
G01*
X96279903Y-81110166D01*
G75*
G02*
X97324834Y-82309903I-77403J-1122334D01*
G01*
X97284834Y-82889903D01*
G75*
G02*
X96085097Y-83934834I-1122334J77403D01*
G01*
G37*
%TD*%
%TO.C,F1*%
G36*
G01*
X57318750Y-109893750D02*
X58568750Y-109893750D01*
G75*
G02*
X58818750Y-110143750I0J-250000D01*
G01*
X58818750Y-110893750D01*
G75*
G02*
X58568750Y-111143750I-250000J0D01*
G01*
X57318750Y-111143750D01*
G75*
G02*
X57068750Y-110893750I0J250000D01*
G01*
X57068750Y-110143750D01*
G75*
G02*
X57318750Y-109893750I250000J0D01*
G01*
G37*
G36*
G01*
X57318750Y-112693750D02*
X58568750Y-112693750D01*
G75*
G02*
X58818750Y-112943750I0J-250000D01*
G01*
X58818750Y-113693750D01*
G75*
G02*
X58568750Y-113943750I-250000J0D01*
G01*
X57318750Y-113943750D01*
G75*
G02*
X57068750Y-113693750I0J250000D01*
G01*
X57068750Y-112943750D01*
G75*
G02*
X57318750Y-112693750I250000J0D01*
G01*
G37*
%TD*%
D19*
%TO.C,D2*%
X130968750Y-66612500D03*
X130968750Y-69912500D03*
%TD*%
%TO.C,D4*%
X130968750Y-85662500D03*
X130968750Y-88962500D03*
%TD*%
%TO.C,D3*%
X103187500Y-85662500D03*
X103187500Y-88962500D03*
%TD*%
%TO.C,D1*%
X104775000Y-66612500D03*
X104775000Y-69912500D03*
%TD*%
%TO.C,C7*%
G36*
G01*
X55881250Y-96181250D02*
X56831250Y-96181250D01*
G75*
G02*
X57081250Y-96431250I0J-250000D01*
G01*
X57081250Y-96931250D01*
G75*
G02*
X56831250Y-97181250I-250000J0D01*
G01*
X55881250Y-97181250D01*
G75*
G02*
X55631250Y-96931250I0J250000D01*
G01*
X55631250Y-96431250D01*
G75*
G02*
X55881250Y-96181250I250000J0D01*
G01*
G37*
G36*
G01*
X55881250Y-98081250D02*
X56831250Y-98081250D01*
G75*
G02*
X57081250Y-98331250I0J-250000D01*
G01*
X57081250Y-98831250D01*
G75*
G02*
X56831250Y-99081250I-250000J0D01*
G01*
X55881250Y-99081250D01*
G75*
G02*
X55631250Y-98831250I0J250000D01*
G01*
X55631250Y-98331250D01*
G75*
G02*
X55881250Y-98081250I250000J0D01*
G01*
G37*
%TD*%
%TO.C,C6*%
G36*
G01*
X70379250Y-104300000D02*
X70379250Y-105250000D01*
G75*
G02*
X70129250Y-105500000I-250000J0D01*
G01*
X69629250Y-105500000D01*
G75*
G02*
X69379250Y-105250000I0J250000D01*
G01*
X69379250Y-104300000D01*
G75*
G02*
X69629250Y-104050000I250000J0D01*
G01*
X70129250Y-104050000D01*
G75*
G02*
X70379250Y-104300000I0J-250000D01*
G01*
G37*
G36*
G01*
X68479250Y-104300000D02*
X68479250Y-105250000D01*
G75*
G02*
X68229250Y-105500000I-250000J0D01*
G01*
X67729250Y-105500000D01*
G75*
G02*
X67479250Y-105250000I0J250000D01*
G01*
X67479250Y-104300000D01*
G75*
G02*
X67729250Y-104050000I250000J0D01*
G01*
X68229250Y-104050000D01*
G75*
G02*
X68479250Y-104300000I0J-250000D01*
G01*
G37*
%TD*%
%TO.C,C5*%
G36*
G01*
X76389250Y-93683750D02*
X75439250Y-93683750D01*
G75*
G02*
X75189250Y-93433750I0J250000D01*
G01*
X75189250Y-92933750D01*
G75*
G02*
X75439250Y-92683750I250000J0D01*
G01*
X76389250Y-92683750D01*
G75*
G02*
X76639250Y-92933750I0J-250000D01*
G01*
X76639250Y-93433750D01*
G75*
G02*
X76389250Y-93683750I-250000J0D01*
G01*
G37*
G36*
G01*
X76389250Y-91783750D02*
X75439250Y-91783750D01*
G75*
G02*
X75189250Y-91533750I0J250000D01*
G01*
X75189250Y-91033750D01*
G75*
G02*
X75439250Y-90783750I250000J0D01*
G01*
X76389250Y-90783750D01*
G75*
G02*
X76639250Y-91033750I0J-250000D01*
G01*
X76639250Y-91533750D01*
G75*
G02*
X76389250Y-91783750I-250000J0D01*
G01*
G37*
%TD*%
%TO.C,C4*%
G36*
G01*
X60643750Y-84275000D02*
X61593750Y-84275000D01*
G75*
G02*
X61843750Y-84525000I0J-250000D01*
G01*
X61843750Y-85025000D01*
G75*
G02*
X61593750Y-85275000I-250000J0D01*
G01*
X60643750Y-85275000D01*
G75*
G02*
X60393750Y-85025000I0J250000D01*
G01*
X60393750Y-84525000D01*
G75*
G02*
X60643750Y-84275000I250000J0D01*
G01*
G37*
G36*
G01*
X60643750Y-86175000D02*
X61593750Y-86175000D01*
G75*
G02*
X61843750Y-86425000I0J-250000D01*
G01*
X61843750Y-86925000D01*
G75*
G02*
X61593750Y-87175000I-250000J0D01*
G01*
X60643750Y-87175000D01*
G75*
G02*
X60393750Y-86925000I0J250000D01*
G01*
X60393750Y-86425000D01*
G75*
G02*
X60643750Y-86175000I250000J0D01*
G01*
G37*
%TD*%
%TO.C,C3*%
G36*
G01*
X69531250Y-87175000D02*
X68581250Y-87175000D01*
G75*
G02*
X68331250Y-86925000I0J250000D01*
G01*
X68331250Y-86425000D01*
G75*
G02*
X68581250Y-86175000I250000J0D01*
G01*
X69531250Y-86175000D01*
G75*
G02*
X69781250Y-86425000I0J-250000D01*
G01*
X69781250Y-86925000D01*
G75*
G02*
X69531250Y-87175000I-250000J0D01*
G01*
G37*
G36*
G01*
X69531250Y-85275000D02*
X68581250Y-85275000D01*
G75*
G02*
X68331250Y-85025000I0J250000D01*
G01*
X68331250Y-84525000D01*
G75*
G02*
X68581250Y-84275000I250000J0D01*
G01*
X69531250Y-84275000D01*
G75*
G02*
X69781250Y-84525000I0J-250000D01*
G01*
X69781250Y-85025000D01*
G75*
G02*
X69531250Y-85275000I-250000J0D01*
G01*
G37*
%TD*%
%TO.C,C2*%
G36*
G01*
X57625000Y-90350000D02*
X56675000Y-90350000D01*
G75*
G02*
X56425000Y-90100000I0J250000D01*
G01*
X56425000Y-89600000D01*
G75*
G02*
X56675000Y-89350000I250000J0D01*
G01*
X57625000Y-89350000D01*
G75*
G02*
X57875000Y-89600000I0J-250000D01*
G01*
X57875000Y-90100000D01*
G75*
G02*
X57625000Y-90350000I-250000J0D01*
G01*
G37*
G36*
G01*
X57625000Y-88450000D02*
X56675000Y-88450000D01*
G75*
G02*
X56425000Y-88200000I0J250000D01*
G01*
X56425000Y-87700000D01*
G75*
G02*
X56675000Y-87450000I250000J0D01*
G01*
X57625000Y-87450000D01*
G75*
G02*
X57875000Y-87700000I0J-250000D01*
G01*
X57875000Y-88200000D01*
G75*
G02*
X57625000Y-88450000I-250000J0D01*
G01*
G37*
%TD*%
%TO.C,C1*%
G36*
G01*
X60462500Y-106043750D02*
X60462500Y-105093750D01*
G75*
G02*
X60712500Y-104843750I250000J0D01*
G01*
X61212500Y-104843750D01*
G75*
G02*
X61462500Y-105093750I0J-250000D01*
G01*
X61462500Y-106043750D01*
G75*
G02*
X61212500Y-106293750I-250000J0D01*
G01*
X60712500Y-106293750D01*
G75*
G02*
X60462500Y-106043750I0J250000D01*
G01*
G37*
G36*
G01*
X62362500Y-106043750D02*
X62362500Y-105093750D01*
G75*
G02*
X62612500Y-104843750I250000J0D01*
G01*
X63112500Y-104843750D01*
G75*
G02*
X63362500Y-105093750I0J-250000D01*
G01*
X63362500Y-106043750D01*
G75*
G02*
X63112500Y-106293750I-250000J0D01*
G01*
X62612500Y-106293750D01*
G75*
G02*
X62362500Y-106043750I0J250000D01*
G01*
G37*
%TD*%
M02*
