%TF.GenerationSoftware,KiCad,Pcbnew,(5.1.10-1-10_14)*%
%TF.CreationDate,2021-07-24T22:10:12-05:00*%
%TF.ProjectId,Untitled,556e7469-746c-4656-942e-6b696361645f,rev?*%
%TF.SameCoordinates,Original*%
%TF.FileFunction,Paste,Bot*%
%TF.FilePolarity,Positive*%
%FSLAX46Y46*%
G04 Gerber Fmt 4.6, Leading zero omitted, Abs format (unit mm)*
G04 Created by KiCad (PCBNEW (5.1.10-1-10_14)) date 2021-07-24 22:10:12*
%MOMM*%
%LPD*%
G01*
G04 APERTURE LIST*
%ADD10R,0.500000X2.250000*%
%ADD11R,1.200000X0.900000*%
%ADD12R,1.400000X1.200000*%
%ADD13R,1.500000X0.550000*%
%ADD14R,0.550000X1.500000*%
%ADD15R,1.800000X1.100000*%
G04 APERTURE END LIST*
D10*
%TO.C,USB1*%
X48406250Y-115134000D03*
X49206250Y-115134000D03*
X50006250Y-115134000D03*
X50806250Y-115134000D03*
X51606250Y-115134000D03*
%TD*%
D11*
%TO.C,D9*%
X160337500Y-66612500D03*
X160337500Y-69912500D03*
%TD*%
%TO.C,D8*%
X160337500Y-104712500D03*
X160337500Y-108012500D03*
%TD*%
%TO.C,D7*%
X160337500Y-85662500D03*
X160337500Y-88962500D03*
%TD*%
%TO.C,D6*%
X130968750Y-103918750D03*
X130968750Y-107218750D03*
%TD*%
%TO.C,D5*%
X103187500Y-103125000D03*
X103187500Y-106425000D03*
%TD*%
D12*
%TO.C,Y1*%
X66187500Y-86575000D03*
X63987500Y-86575000D03*
X63987500Y-84875000D03*
X66187500Y-84875000D03*
%TD*%
D13*
%TO.C,U1*%
X59387500Y-100837500D03*
X59387500Y-100037500D03*
X59387500Y-99237500D03*
X59387500Y-98437500D03*
X59387500Y-97637500D03*
X59387500Y-96837500D03*
X59387500Y-96037500D03*
X59387500Y-95237500D03*
X59387500Y-94437500D03*
X59387500Y-93637500D03*
X59387500Y-92837500D03*
D14*
X61087500Y-91137500D03*
X61887500Y-91137500D03*
X62687500Y-91137500D03*
X63487500Y-91137500D03*
X64287500Y-91137500D03*
X65087500Y-91137500D03*
X65887500Y-91137500D03*
X66687500Y-91137500D03*
X67487500Y-91137500D03*
X68287500Y-91137500D03*
X69087500Y-91137500D03*
D13*
X70787500Y-92837500D03*
X70787500Y-93637500D03*
X70787500Y-94437500D03*
X70787500Y-95237500D03*
X70787500Y-96037500D03*
X70787500Y-96837500D03*
X70787500Y-97637500D03*
X70787500Y-98437500D03*
X70787500Y-99237500D03*
X70787500Y-100037500D03*
X70787500Y-100837500D03*
D14*
X69087500Y-102537500D03*
X68287500Y-102537500D03*
X67487500Y-102537500D03*
X66687500Y-102537500D03*
X65887500Y-102537500D03*
X65087500Y-102537500D03*
X64287500Y-102537500D03*
X63487500Y-102537500D03*
X62687500Y-102537500D03*
X61887500Y-102537500D03*
X61087500Y-102537500D03*
%TD*%
D15*
%TO.C,SW1*%
X53900000Y-87050000D03*
X47700000Y-90750000D03*
X53900000Y-90750000D03*
X47700000Y-87050000D03*
%TD*%
%TO.C,R4*%
G36*
G01*
X74967252Y-105215750D02*
X74067248Y-105215750D01*
G75*
G02*
X73817250Y-104965752I0J249998D01*
G01*
X73817250Y-104440748D01*
G75*
G02*
X74067248Y-104190750I249998J0D01*
G01*
X74967252Y-104190750D01*
G75*
G02*
X75217250Y-104440748I0J-249998D01*
G01*
X75217250Y-104965752D01*
G75*
G02*
X74967252Y-105215750I-249998J0D01*
G01*
G37*
G36*
G01*
X74967252Y-103390750D02*
X74067248Y-103390750D01*
G75*
G02*
X73817250Y-103140752I0J249998D01*
G01*
X73817250Y-102615748D01*
G75*
G02*
X74067248Y-102365750I249998J0D01*
G01*
X74967252Y-102365750D01*
G75*
G02*
X75217250Y-102615748I0J-249998D01*
G01*
X75217250Y-103140752D01*
G75*
G02*
X74967252Y-103390750I-249998J0D01*
G01*
G37*
%TD*%
%TO.C,R3*%
G36*
G01*
X51250002Y-95881250D02*
X50349998Y-95881250D01*
G75*
G02*
X50100000Y-95631252I0J249998D01*
G01*
X50100000Y-95106248D01*
G75*
G02*
X50349998Y-94856250I249998J0D01*
G01*
X51250002Y-94856250D01*
G75*
G02*
X51500000Y-95106248I0J-249998D01*
G01*
X51500000Y-95631252D01*
G75*
G02*
X51250002Y-95881250I-249998J0D01*
G01*
G37*
G36*
G01*
X51250002Y-94056250D02*
X50349998Y-94056250D01*
G75*
G02*
X50100000Y-93806252I0J249998D01*
G01*
X50100000Y-93281248D01*
G75*
G02*
X50349998Y-93031250I249998J0D01*
G01*
X51250002Y-93031250D01*
G75*
G02*
X51500000Y-93281248I0J-249998D01*
G01*
X51500000Y-93806252D01*
G75*
G02*
X51250002Y-94056250I-249998J0D01*
G01*
G37*
%TD*%
%TO.C,R2*%
G36*
G01*
X50168750Y-109987502D02*
X50168750Y-109087498D01*
G75*
G02*
X50418748Y-108837500I249998J0D01*
G01*
X50943752Y-108837500D01*
G75*
G02*
X51193750Y-109087498I0J-249998D01*
G01*
X51193750Y-109987502D01*
G75*
G02*
X50943752Y-110237500I-249998J0D01*
G01*
X50418748Y-110237500D01*
G75*
G02*
X50168750Y-109987502I0J249998D01*
G01*
G37*
G36*
G01*
X51993750Y-109987502D02*
X51993750Y-109087498D01*
G75*
G02*
X52243748Y-108837500I249998J0D01*
G01*
X52768752Y-108837500D01*
G75*
G02*
X53018750Y-109087498I0J-249998D01*
G01*
X53018750Y-109987502D01*
G75*
G02*
X52768752Y-110237500I-249998J0D01*
G01*
X52243748Y-110237500D01*
G75*
G02*
X51993750Y-109987502I0J249998D01*
G01*
G37*
%TD*%
%TO.C,R1*%
G36*
G01*
X50168750Y-108019002D02*
X50168750Y-107118998D01*
G75*
G02*
X50418748Y-106869000I249998J0D01*
G01*
X50943752Y-106869000D01*
G75*
G02*
X51193750Y-107118998I0J-249998D01*
G01*
X51193750Y-108019002D01*
G75*
G02*
X50943752Y-108269000I-249998J0D01*
G01*
X50418748Y-108269000D01*
G75*
G02*
X50168750Y-108019002I0J249998D01*
G01*
G37*
G36*
G01*
X51993750Y-108019002D02*
X51993750Y-107118998D01*
G75*
G02*
X52243748Y-106869000I249998J0D01*
G01*
X52768752Y-106869000D01*
G75*
G02*
X53018750Y-107118998I0J-249998D01*
G01*
X53018750Y-108019002D01*
G75*
G02*
X52768752Y-108269000I-249998J0D01*
G01*
X52243748Y-108269000D01*
G75*
G02*
X51993750Y-108019002I0J249998D01*
G01*
G37*
%TD*%
%TO.C,F1*%
G36*
G01*
X57318750Y-109893750D02*
X58568750Y-109893750D01*
G75*
G02*
X58818750Y-110143750I0J-250000D01*
G01*
X58818750Y-110893750D01*
G75*
G02*
X58568750Y-111143750I-250000J0D01*
G01*
X57318750Y-111143750D01*
G75*
G02*
X57068750Y-110893750I0J250000D01*
G01*
X57068750Y-110143750D01*
G75*
G02*
X57318750Y-109893750I250000J0D01*
G01*
G37*
G36*
G01*
X57318750Y-112693750D02*
X58568750Y-112693750D01*
G75*
G02*
X58818750Y-112943750I0J-250000D01*
G01*
X58818750Y-113693750D01*
G75*
G02*
X58568750Y-113943750I-250000J0D01*
G01*
X57318750Y-113943750D01*
G75*
G02*
X57068750Y-113693750I0J250000D01*
G01*
X57068750Y-112943750D01*
G75*
G02*
X57318750Y-112693750I250000J0D01*
G01*
G37*
%TD*%
D11*
%TO.C,D2*%
X130968750Y-66612500D03*
X130968750Y-69912500D03*
%TD*%
%TO.C,D4*%
X130968750Y-85662500D03*
X130968750Y-88962500D03*
%TD*%
%TO.C,D3*%
X103187500Y-85662500D03*
X103187500Y-88962500D03*
%TD*%
%TO.C,D1*%
X104775000Y-66612500D03*
X104775000Y-69912500D03*
%TD*%
%TO.C,C7*%
G36*
G01*
X55881250Y-96181250D02*
X56831250Y-96181250D01*
G75*
G02*
X57081250Y-96431250I0J-250000D01*
G01*
X57081250Y-96931250D01*
G75*
G02*
X56831250Y-97181250I-250000J0D01*
G01*
X55881250Y-97181250D01*
G75*
G02*
X55631250Y-96931250I0J250000D01*
G01*
X55631250Y-96431250D01*
G75*
G02*
X55881250Y-96181250I250000J0D01*
G01*
G37*
G36*
G01*
X55881250Y-98081250D02*
X56831250Y-98081250D01*
G75*
G02*
X57081250Y-98331250I0J-250000D01*
G01*
X57081250Y-98831250D01*
G75*
G02*
X56831250Y-99081250I-250000J0D01*
G01*
X55881250Y-99081250D01*
G75*
G02*
X55631250Y-98831250I0J250000D01*
G01*
X55631250Y-98331250D01*
G75*
G02*
X55881250Y-98081250I250000J0D01*
G01*
G37*
%TD*%
%TO.C,C6*%
G36*
G01*
X70379250Y-104300000D02*
X70379250Y-105250000D01*
G75*
G02*
X70129250Y-105500000I-250000J0D01*
G01*
X69629250Y-105500000D01*
G75*
G02*
X69379250Y-105250000I0J250000D01*
G01*
X69379250Y-104300000D01*
G75*
G02*
X69629250Y-104050000I250000J0D01*
G01*
X70129250Y-104050000D01*
G75*
G02*
X70379250Y-104300000I0J-250000D01*
G01*
G37*
G36*
G01*
X68479250Y-104300000D02*
X68479250Y-105250000D01*
G75*
G02*
X68229250Y-105500000I-250000J0D01*
G01*
X67729250Y-105500000D01*
G75*
G02*
X67479250Y-105250000I0J250000D01*
G01*
X67479250Y-104300000D01*
G75*
G02*
X67729250Y-104050000I250000J0D01*
G01*
X68229250Y-104050000D01*
G75*
G02*
X68479250Y-104300000I0J-250000D01*
G01*
G37*
%TD*%
%TO.C,C5*%
G36*
G01*
X76389250Y-93683750D02*
X75439250Y-93683750D01*
G75*
G02*
X75189250Y-93433750I0J250000D01*
G01*
X75189250Y-92933750D01*
G75*
G02*
X75439250Y-92683750I250000J0D01*
G01*
X76389250Y-92683750D01*
G75*
G02*
X76639250Y-92933750I0J-250000D01*
G01*
X76639250Y-93433750D01*
G75*
G02*
X76389250Y-93683750I-250000J0D01*
G01*
G37*
G36*
G01*
X76389250Y-91783750D02*
X75439250Y-91783750D01*
G75*
G02*
X75189250Y-91533750I0J250000D01*
G01*
X75189250Y-91033750D01*
G75*
G02*
X75439250Y-90783750I250000J0D01*
G01*
X76389250Y-90783750D01*
G75*
G02*
X76639250Y-91033750I0J-250000D01*
G01*
X76639250Y-91533750D01*
G75*
G02*
X76389250Y-91783750I-250000J0D01*
G01*
G37*
%TD*%
%TO.C,C4*%
G36*
G01*
X60643750Y-84275000D02*
X61593750Y-84275000D01*
G75*
G02*
X61843750Y-84525000I0J-250000D01*
G01*
X61843750Y-85025000D01*
G75*
G02*
X61593750Y-85275000I-250000J0D01*
G01*
X60643750Y-85275000D01*
G75*
G02*
X60393750Y-85025000I0J250000D01*
G01*
X60393750Y-84525000D01*
G75*
G02*
X60643750Y-84275000I250000J0D01*
G01*
G37*
G36*
G01*
X60643750Y-86175000D02*
X61593750Y-86175000D01*
G75*
G02*
X61843750Y-86425000I0J-250000D01*
G01*
X61843750Y-86925000D01*
G75*
G02*
X61593750Y-87175000I-250000J0D01*
G01*
X60643750Y-87175000D01*
G75*
G02*
X60393750Y-86925000I0J250000D01*
G01*
X60393750Y-86425000D01*
G75*
G02*
X60643750Y-86175000I250000J0D01*
G01*
G37*
%TD*%
%TO.C,C3*%
G36*
G01*
X69531250Y-87175000D02*
X68581250Y-87175000D01*
G75*
G02*
X68331250Y-86925000I0J250000D01*
G01*
X68331250Y-86425000D01*
G75*
G02*
X68581250Y-86175000I250000J0D01*
G01*
X69531250Y-86175000D01*
G75*
G02*
X69781250Y-86425000I0J-250000D01*
G01*
X69781250Y-86925000D01*
G75*
G02*
X69531250Y-87175000I-250000J0D01*
G01*
G37*
G36*
G01*
X69531250Y-85275000D02*
X68581250Y-85275000D01*
G75*
G02*
X68331250Y-85025000I0J250000D01*
G01*
X68331250Y-84525000D01*
G75*
G02*
X68581250Y-84275000I250000J0D01*
G01*
X69531250Y-84275000D01*
G75*
G02*
X69781250Y-84525000I0J-250000D01*
G01*
X69781250Y-85025000D01*
G75*
G02*
X69531250Y-85275000I-250000J0D01*
G01*
G37*
%TD*%
%TO.C,C2*%
G36*
G01*
X57625000Y-90350000D02*
X56675000Y-90350000D01*
G75*
G02*
X56425000Y-90100000I0J250000D01*
G01*
X56425000Y-89600000D01*
G75*
G02*
X56675000Y-89350000I250000J0D01*
G01*
X57625000Y-89350000D01*
G75*
G02*
X57875000Y-89600000I0J-250000D01*
G01*
X57875000Y-90100000D01*
G75*
G02*
X57625000Y-90350000I-250000J0D01*
G01*
G37*
G36*
G01*
X57625000Y-88450000D02*
X56675000Y-88450000D01*
G75*
G02*
X56425000Y-88200000I0J250000D01*
G01*
X56425000Y-87700000D01*
G75*
G02*
X56675000Y-87450000I250000J0D01*
G01*
X57625000Y-87450000D01*
G75*
G02*
X57875000Y-87700000I0J-250000D01*
G01*
X57875000Y-88200000D01*
G75*
G02*
X57625000Y-88450000I-250000J0D01*
G01*
G37*
%TD*%
%TO.C,C1*%
G36*
G01*
X60462500Y-106043750D02*
X60462500Y-105093750D01*
G75*
G02*
X60712500Y-104843750I250000J0D01*
G01*
X61212500Y-104843750D01*
G75*
G02*
X61462500Y-105093750I0J-250000D01*
G01*
X61462500Y-106043750D01*
G75*
G02*
X61212500Y-106293750I-250000J0D01*
G01*
X60712500Y-106293750D01*
G75*
G02*
X60462500Y-106043750I0J250000D01*
G01*
G37*
G36*
G01*
X62362500Y-106043750D02*
X62362500Y-105093750D01*
G75*
G02*
X62612500Y-104843750I250000J0D01*
G01*
X63112500Y-104843750D01*
G75*
G02*
X63362500Y-105093750I0J-250000D01*
G01*
X63362500Y-106043750D01*
G75*
G02*
X63112500Y-106293750I-250000J0D01*
G01*
X62612500Y-106293750D01*
G75*
G02*
X62362500Y-106043750I0J250000D01*
G01*
G37*
%TD*%
M02*
