M48
; DRILL file {KiCad (5.1.10-1-10_14)} date Saturday, July 24, 2021 at 10:10:08 PM
; FORMAT={-:-/ absolute / inch / decimal}
; #@! TF.CreationDate,2021-07-24T22:10:08-05:00
; #@! TF.GenerationSoftware,Kicad,Pcbnew,(5.1.10-1-10_14)
; #@! TF.FileFunction,Plated,1,2,PTH
FMAT,2
INCH
T1C0.0157
T2C0.0276
T3C0.0394
T4C0.0579
%
G90
G05
T1
X1.9058Y-4.45
X2.2188Y-3.5938
X2.25Y-3.6875
X2.41Y-3.66
X2.4157Y-4.0942
X2.42Y-3.72
X2.6245Y-4.0942
X2.6245Y-4.0942
X2.845Y-4.125
X2.845Y-4.125
X2.885Y-4.175
X2.9688Y-3.7188
X3.0625Y-3.6875
X3.0625Y-3.6875
X3.0625Y-4.0233
X3.0625Y-4.0233
X3.2Y-2.6
X4.6Y-2.3
X5.75Y-2.25
T3
X1.75Y-3.8
X1.75Y-3.9
X1.75Y-4.0
X1.85Y-3.8
X1.85Y-3.9
X1.85Y-4.0
T4
X3.5375Y-2.5875
X3.5375Y-3.3375
X3.5375Y-4.0875
X3.5891Y-2.53
X3.5891Y-3.28
X3.5891Y-4.03
X3.7859Y-2.5103
X3.7859Y-3.2603
X3.7859Y-4.0103
X3.7875Y-2.4875
X3.7875Y-3.2375
X3.7875Y-3.9875
X4.6625Y-2.5875
X4.6625Y-3.3375
X4.6625Y-4.0875
X4.7141Y-2.53
X4.7141Y-3.28
X4.7141Y-4.03
X4.9109Y-2.5103
X4.9109Y-3.2603
X4.9109Y-4.0103
X4.9125Y-2.4875
X4.9125Y-3.2375
X4.9125Y-3.9875
X5.7812Y-2.5875
X5.7875Y-3.3375
X5.7875Y-4.0875
X5.8328Y-2.53
X5.8391Y-3.28
X5.8391Y-4.03
X6.0297Y-2.5103
X6.0312Y-2.4875
X6.0359Y-3.2603
X6.0359Y-4.0103
X6.0375Y-3.2375
X6.0375Y-3.9875
T2
G00X1.825Y-4.5565
M15
G01X1.825Y-4.5092
M16
G05
G00X1.825Y-4.7336
M15
G01X1.825Y-4.6864
M16
G05
G00X2.1125Y-4.5565
M15
G01X2.1125Y-4.5092
M16
G05
G00X2.1125Y-4.7336
M15
G01X2.1125Y-4.6864
M16
G05
T0
M30
